<?xml version="1.0" encoding="UTF-8"?>
<svg height="1024" viewBox="0 0 1024 1024" width="1024" xmlns="http://www.w3.org/2000/svg">
  <path d="M1024,1024L460.80,1024L1024,460.80Z" fill="#FF6B34"/>
  <path d="M728.88,832.86L728.88,775.14L750.92,775.14Q759.58,775.14 765.73,778.47Q771.88,781.80 775.16,788.17Q778.44,794.54 778.44,803.70L778.44,803.78Q778.44,812.94 775.17,819.46Q771.90,825.98 765.75,829.42Q759.60,832.86 750.92,832.86ZM740.96,822.88L749.48,822.88Q754.88,822.88 758.59,820.71Q762.30,818.54 764.21,814.30Q766.12,810.06 766.12,803.82L766.12,803.74Q766.12,797.72 764.17,793.56Q762.22,789.40 758.50,787.26Q754.78,785.12 749.48,785.12L740.96,785.12ZM786.22,832.86L786.22,775.14L824.46,775.14L824.46,785.10L798.30,785.10L798.30,798.96L822.98,798.96L822.98,808.40L798.30,808.40L798.30,822.90L824.46,822.90L824.46,832.86ZM848.78,832.86L829.46,775.14L842.84,775.14L856.02,820.50L856.26,820.50L869.44,775.14L882.82,775.14L863.50,832.86Z" fill="#FFFFFF" transform="rotate(-45,804,804)"/>
</svg>
